<?xml version="1.0" encoding="UTF-8" standalone="no"?>
<svg
   width="91"
   height="91"
   viewBox="0 0 68.250024 68.250024"
   preserveAspectRatio="xMidYMid meet"
   version="1.1"
   id="svg826"
   sodipodi:docname="favicon.svg"
   inkscape:version="1.1.1 (c3084ef, 2021-09-22)"
   xmlns:inkscape="http://www.inkscape.org/namespaces/inkscape"
   xmlns:sodipodi="http://sodipodi.sourceforge.net/DTD/sodipodi-0.dtd"
   xmlns="http://www.w3.org/2000/svg"
   xmlns:svg="http://www.w3.org/2000/svg">
  <defs
     id="defs830" />
  <sodipodi:namedview
     id="namedview828"
     pagecolor="#ffffff"
     bordercolor="#666666"
     borderopacity="1.0"
     inkscape:pageshadow="2"
     inkscape:pageopacity="0.0"
     inkscape:pagecheckerboard="0"
     showgrid="false"
     inkscape:zoom="0.77035741"
     inkscape:cx="436.81023"
     inkscape:cy="541.95623"
     inkscape:window-width="1720"
     inkscape:window-height="1387"
     inkscape:window-x="1720"
     inkscape:window-y="25"
     inkscape:window-maximized="0"
     inkscape:current-layer="svg826" />
  <rect
     style="fill:#000000;stroke-width:0.617905"
     id="rect938"
     width="68.250023"
     height="68.250023"
     x="0"
     y="-1.7763568e-15" />
  <path
     fill-rule="evenodd"
     clip-rule="evenodd"
     d="m 16.601598,13.92691 c 0,-1.280115 1.015051,-2.317861 2.267424,-2.317861 h 31.743937 c 1.252378,0 2.26742,1.037746 2.26742,2.317861 v 0 c 0,1.280133 -1.015042,2.31787 -2.26742,2.31787 H 18.869022 c -1.252373,0 -2.267424,-1.037737 -2.267424,-2.31787 z m 0,41.721572 c 0,-1.280081 1.015051,-2.317865 2.267424,-2.317865 h 31.743937 c 1.252378,0 2.26742,1.037784 2.26742,2.317865 v 0 c 0,1.280158 -1.015042,2.317866 -2.26742,2.317866 H 18.869022 c -1.252373,0 -2.267424,-1.037708 -2.267424,-2.317866 z m 36.278781,-20.8608 c 0,-1.28008 -1.015042,-2.317865 -2.26742,-2.317865 H 18.869022 c -1.252373,0 -2.267424,1.037785 -2.267424,2.317865 v 0 c 0,1.280158 1.015051,2.317866 2.267424,2.317866 h 31.743937 c 1.252378,0 2.26742,-1.037708 2.26742,-2.317866 z"
     fill="#ffffff"
     id="path840"
     style="stroke-width:0.764163" />
</svg>
