<?xml version="1.0" encoding="UTF-8" standalone="no"?>
<svg
   width="150"
   height="30"
   fill="none"
   version="1.1"
   id="svg949"
   sodipodi:docname="logo.svg"
   inkscape:version="1.1.1 (c3084ef, 2021-09-22)"
   xmlns:inkscape="http://www.inkscape.org/namespaces/inkscape"
   xmlns:sodipodi="http://sodipodi.sourceforge.net/DTD/sodipodi-0.dtd"
   xmlns="http://www.w3.org/2000/svg"
   xmlns:svg="http://www.w3.org/2000/svg">
  <defs
     id="defs953" />
  <sodipodi:namedview
     id="namedview951"
     pagecolor="#ffffff"
     bordercolor="#666666"
     borderopacity="1.0"
     inkscape:pageshadow="2"
     inkscape:pageopacity="0.0"
     inkscape:pagecheckerboard="0"
     showgrid="false"
     inkscape:zoom="3.3411613"
     inkscape:cx="102.20997"
     inkscape:cy="12.720128"
     inkscape:window-width="1720"
     inkscape:window-height="1387"
     inkscape:window-x="0"
     inkscape:window-y="25"
     inkscape:window-maximized="0"
     inkscape:current-layer="svg949" />
  <path
     d="M 133.33109,22.373987 V 4.7952769 h 2.04452 V 12.77389 h 0.0499 l 8.52771,-7.9791672 h 2.61827 l -9.77464,9.1011582 0.0249,-1.097059 10.29824,9.574889 h -2.69279 l -9.00169,-8.278363 h -0.0499 v 8.278363 z m -9.17236,0.224399 c -1.72869,0 -3.20805,-0.365686 -4.4381,-1.097059 -1.23059,-0.731373 -2.17804,-1.770254 -2.84293,-3.116645 -0.64827,-1.346667 -0.97239,-2.950978 -0.97239,-4.812654 0,-1.861677 0.32412,-3.457399 0.97239,-4.787445 0.66489,-1.3463906 1.61234,-2.3852725 2.84266,-3.1169224 1.23003,-0.7313729 2.70941,-1.0970592 4.43837,-1.0970592 1.21342,0 2.33541,0.1911543 3.36626,0.5734628 1.03057,0.3823085 1.89493,0.9391491 2.59305,1.6705219 l -0.79786,1.6705219 c -0.76462,-0.71475 -1.56248,-1.230036 -2.39359,-1.5458561 -0.81447,-0.3324421 -1.72038,-0.4986632 -2.71771,-0.4986632 -1.97859,0 -3.4912,0.623329 -4.53838,1.8699883 -1.04721,1.246657 -1.5708,3.000566 -1.5708,5.261451 0,2.260606 0.52359,4.022549 1.5708,5.286108 1.04718,1.246657 2.55979,1.869986 4.53809,1.869986 0.99734,0 1.90324,-0.157909 2.71773,-0.47373 0.83138,-0.332442 1.62924,-0.856038 2.39386,-1.570789 l 0.79786,1.670522 c -0.69812,0.714751 -1.56248,1.271869 -2.59305,1.670799 -1.03058,0.382309 -2.15257,0.573462 -3.36597,0.573462 z M 96.984631,22.373987 104.7394,4.7949999 h 1.74533 l 7.75476,17.5789871 h -2.11932 l -2.16919,-5.011841 0.99733,0.523595 h -10.72209 l 1.02227,-0.523595 -2.144254,5.011841 z m 8.602499,-15.1854034 -4.01424,9.4505004 -0.5984,-0.47373 h 9.22555 l -0.54853,0.47373 -4.01425,-9.4505004 z M 89.893921,22.373987 V 6.5655316 H 83.510202 V 4.7952769 h 14.83633 V 6.5655316 H 91.963366 V 22.374265 Z"
     fill="#ffffff"
     id="path943"
     style="stroke-width:0.277035" />
  <path
     fill-rule="evenodd"
     clip-rule="evenodd"
     d="m 67.854385,4.7731142 h 14.08087 v 1.7600042 h -14.08087 z m 0,15.8408698 h 14.08087 v 1.760003 h -14.08087 z m 14.08087,-7.920435 h -14.08087 v 1.760005 h 14.08087 z"
     fill="#ffffff"
     id="path945"
     style="stroke-width:0.277035" />
  <path
     d="m 57.664473,22.373987 v -9.101158 l 0.448804,1.421191 -7.181309,-9.8990201 h 2.393861 l 5.660109,7.8295671 h -0.523606 l 5.660391,-7.8295671 h 2.318787 l -7.156373,9.8987421 0.42414,-1.421189 v 9.101158 z m -20.188102,0 V 20.853065 L 48.148596,5.7673932 V 6.5652545 H 37.476371 V 4.7949999 H 50.06845 V 6.3159228 L 39.396501,21.376661 v -0.772927 h 11.02129 v 1.770253 z m -10.396298,0.224399 c -1.213414,0 -2.319062,-0.207776 -3.316389,-0.623328 -0.997327,-0.432175 -1.845055,-1.038882 -2.543184,-1.820121 -0.698406,-0.781239 -1.238624,-1.7287 -1.620933,-2.842658 -0.365686,-1.113682 -0.548529,-2.360339 -0.548529,-3.740251 0,-1.396257 0.182843,-2.642917 0.548529,-3.740252 0.382309,-1.113682 0.922527,-2.0528309 1.620656,-2.8174475 0.698129,-0.7812392 1.537545,-1.3799121 2.51825,-1.7954648 0.997604,-0.4321749 2.111287,-0.6482623 3.3416,-0.6482623 1.246657,0 2.360339,0.2077763 3.341044,0.6233291 0.997327,0.4155527 1.845055,1.0139486 2.543459,1.7951877 0.714751,0.7812398 1.254969,1.7286998 1.620655,2.8426578 0.38231,1.097059 0.573464,2.335406 0.573464,3.715042 0,1.396533 -0.191154,2.651779 -0.573464,3.765461 -0.382308,1.113682 -0.922526,2.061142 -1.620655,2.842381 -0.698129,0.781239 -1.545856,1.387946 -2.543183,1.820398 -0.980704,0.415552 -2.094663,0.623328 -3.34132,0.623328 z m 0,-1.82012 c 1.263279,0 2.327094,-0.282576 3.191443,-0.847728 0.880973,-0.565152 1.554169,-1.387946 2.019588,-2.46866 0.465696,-1.080437 0.698406,-2.376961 0.698406,-3.88985 0,-1.529234 -0.23271,-2.825758 -0.698129,-3.889851 -0.465419,-1.063815 -1.138614,-1.8782978 -2.019587,-2.44345 -0.86435,-0.5651518 -1.928442,-0.8477276 -3.191721,-0.8477276 -1.230038,0 -2.285818,0.2825758 -3.166791,0.8477276 -0.86435,0.5651522 -1.529234,1.387946 -1.994653,2.468383 -0.465419,1.063815 -0.698129,2.352029 -0.698129,3.864641 0,1.512889 0.23271,2.80969 0.698129,3.890127 0.465419,1.063815 1.130303,1.886609 1.994653,2.468383 0.880973,0.565151 1.936478,0.847727 3.166513,0.847727 z m -16.041724,1.82012 c -1.7286981,0 -3.2083417,-0.365686 -4.4386561,-1.097059 C 5.3696571,20.769954 4.4221966,19.731073 3.7573131,18.384682 3.1090501,17.038015 2.7849195,15.433704 2.7849195,13.572028 c 0,-1.861677 0.3241306,-3.457399 0.9723936,-4.787445 C 4.4221966,7.4381924 5.3696571,6.3993105 6.5996929,5.6676606 7.8297298,4.9362877 9.3093734,4.5706014 11.038349,4.5706014 c 1.213414,0 2.335408,0.1911543 3.365978,0.5734628 1.030572,0.3823085 1.894922,0.9391491 2.593326,1.6705219 L 16.199791,8.485108 C 15.435175,7.770358 14.637313,7.255072 13.806209,6.9392519 12.991447,6.6068098 12.085543,6.4405887 11.088216,6.4405887 c -1.9780304,0 -3.4909188,0.623329 -4.5383892,1.8699883 -1.0471927,1.246657 -1.5707886,3.000566 -1.5707886,5.261451 0,2.260606 0.5235959,4.022549 1.5707886,5.286108 1.0471929,1.246657 2.5600823,1.869986 4.5383892,1.869986 0.997327,0 1.903231,-0.157909 2.717715,-0.47373 0.831106,-0.332442 1.628968,-0.856038 2.393584,-1.570789 l 0.798138,1.670522 c -0.698128,0.714751 -1.562478,1.271869 -2.593048,1.670799 -1.030572,0.382309 -2.152842,0.573462 -3.366256,0.573462 z"
     fill="#ffffff"
     id="path947"
     style="stroke-width:0.277035" />
</svg>
